<svg width="464" height="1403" xmlns="http://www.w3.org/2000/svg" xmlns:xlink="http://www.w3.org/1999/xlink">
 <!-- Generator: Sketch 55.2 (78181) - https://sketchapp.com -->
 <title>gee_me_078</title>
 <desc>Created with Sketch.</desc>
 <defs>
  <path id="path-1" d="m76.625,0.129c0.335,2.046 0.51,4.146 0.51,6.286l0,14.184c0,21.3 -17.267,38.567 -38.568,38.567c-21.3,0 -38.567,-17.267 -38.567,-38.567l0,-14.184c0,-2.14 0.174,-4.24 0.51,-6.286l76.115,0z"/>
 </defs>
 <g>
  <title>background</title>
  <rect fill="none" id="canvas_background" height="602" width="802" y="-1" x="-1"/>
 </g>
 <g>
  <title>Layer 1</title>
  <g fill-rule="evenodd" fill="none" id="GEE!-ME">
   <g id="gee_me_078">
    <g id="svg_1">
     <g fill-rule="nonzero" id="lower-limb">
      <path fill="#EBBAAA" id="Path" d="m310.5,1055.13001c17.49638,0 31.71313,14.04178 31.99571,31.47082l0.00429,0.52918l0,235.5c0,17.67311 -14.32689,32 -32,32c-17.49638,0 -31.71313,-14.04178 -31.99571,-31.47082l-0.00429,-0.52918l0,-235.5c0,-17.67311 14.32689,-32 32,-32z"/>
      <path fill="#EBBAAA" id="Path" d="m153.458,1055.13001c17.49638,0 31.71313,14.04178 31.99571,31.47082l0.00429,0.52918l0,235.5c0,17.67311 -14.32689,32 -32,32c-17.49638,0 -31.71313,-14.04178 -31.99571,-31.47082l-0.00429,-0.52918l0,-235.5c0,-17.67311 14.32689,-32 32,-32z"/>
      <g id="Group-4">
       <path fill="#DCE1E6" id="Path" d="m446.41199,1400.15002c0.2,-22.95 -2.926,-36.91 -22.876,-46.29c-19.95,-9.38 -38.741,-27.41 -73.255,-42.87c0,0 -4.543,-0.85 -11.938,3.15c-6.31,3.41 -14.416,11.78 -26.63,11.68c-13.262,-0.12 -25.081,-2.93 -32.424,-6.78c-3.172,-8.69 -10.21,-8.75 -10.21,-8.75c0,0 -9.909,18.86 -10.075,37.81c-0.165,18.94 -0.14849,50.41 -0.14849,50.41l187.55649,1.64z"/>
       <path fill="#FFFFFF" id="Path" d="m353.90774,1313.76001c0.60752,-1.36594 2.20733,-1.98076 3.57326,-1.37324c1.36594,0.60752 1.98076,2.20732 1.37324,3.57326c-0.58663,1.31897 -1.02651,2.82213 -1.33535,4.5c-0.25882,1.4061 -0.41139,2.70565 -0.49743,4.2361l-0.02942,0.58989l14.53744,-6.41257c2.03947,-0.89969 4.20556,0.90875 3.73968,3.04339l-0.03779,0.153l-2.99733,10.86418l12.00844,-3.87028c1.69313,-0.54581 3.42554,0.66033 3.53216,2.40573l0.00519,0.17055l-0.00079,11.155l8.99743,-4.87494c1.75348,-0.95009 3.87484,0.25784 3.99134,2.21076l0.00502,0.16918l0,13.54c0,1.49495 -1.21189,2.70684 -2.70684,2.70684c-1.43958,0 -2.61668,-1.12379 -2.7019,-2.54195l-0.00494,-0.16489l-0.00011,-8.996l-8.99653,4.87594c-1.75347,0.95009 -3.87484,-0.25784 -3.99134,-2.21076l-0.00502,-0.16918l-0.00011,-11.984l-13.24453,4.27028c-1.99697,0.64376 -3.91181,-1.12547 -3.47898,-3.13685l0.03909,-0.15925l2.81342,-10.20218l-13.18754,5.81857c-1.73662,0.76609 -3.6813,-0.44571 -3.79419,-2.30573l-0.00516,-0.17084l0.00254,-1.02712c0.02007,-3.80542 0.16625,-6.15025 0.68396,-8.96289c0.38182,-2.07438 0.94002,-3.98185 1.71309,-5.72z"/>
       <path fill="#518C2D" id="Path" d="m264.88999,1320.27002c3.852,5.23 17.744,8.36 22.971,9.13c5.227,0.77 10.827,0.09 8.586,8.74c-1.584,6.11 -16.815,3.64 -22.77,3.59c-4.841,-0.05 -11.631,14.59 -14.16,9.62c0,-17 3.207,-26.21 5.373,-31.08z"/>
       <path fill="#EAF4FB" id="Path" d="m438.86399,1355.62002c-6.12,-2.22 -12.602,-3.9 -25.03,-6.72l5.282,15.21l-0.152,17.32l35.373,0.31004c1.443,0.00996 4.023,-1.91004 2.792,-9.72004c-1.539,-9.76 -9.568,-13.25 -18.265,-16.4z"/>
       <polygon points="380.3476257324219,1352.5058288574219 395.6883544921875,1360.5542297363281 379.2093505859375,1391.9642028808594 363.8686218261719,1383.9158020019531 " fill="#518C2D" id="Path"/>
       <polygon points="357.6412048339844,1340.6142883300781 372.99078369140625,1348.6457824707031 353.2437744140625,1386.3857727050781 337.8941955566406,1378.3542785644531 " fill="#518C2D" id="Path"/>
       <polygon points="335.3750305175781,1327.5444641113281 350.7869873046875,1335.4555969238281 323.4839782714844,1388.6455993652344 308.072021484375,1380.7344665527344 " fill="#518C2D" id="Path"/>
       <path fill="#C7CBCF" id="Path" d="m258.26299,1395.55002l1.027,-18.22l158.606,2.47l39.546,-2.9l1.208,13.97c0.417,4.83 -3.201,9.05 -8.032,9.39l-32.921,2.27l-155.177,-2.4c-2.461,-0.04 -4.395,-2.12 -4.257,-4.58z"/>
      </g>
      <g id="Group-5">
       <path fill="#DCE1E6" id="Path" d="m16.7638,1400.15002c-0.2003,-22.95 2.9261,-36.91 22.8756,-46.29c19.9495,-9.38 38.7408,-27.41 73.2546,-42.87c0,0 4.54299,-0.85 11.93799,3.15c6.31101,3.41 14.41701,11.78 26.63001,11.68c13.263,-0.12 25.08099,-2.93 32.424,-6.78c3.173,-8.69 10.20999,-8.75 10.20999,-8.75c0,0 9.91,18.86 10.07501,37.81c0.165,18.94 0.14942,50.41 0.14942,50.41l-187.55662,1.64z"/>
       <path fill="#FFFFFF" id="Path" d="m105.69541,1312.38658c1.36604,-0.60728 2.96574,0.00781 3.57302,1.37385c0.77269,1.7381 1.33061,3.64549 1.71224,5.7198l0.12673,0.72437c0.45473,2.74578 0.55943,5.19147 0.55943,9.26542c0,1.8981 -1.89363,3.18825 -3.64099,2.54079l-0.15839,-0.06423l-13.18825,-5.81856l2.81477,10.20219c0.55795,2.02261 -1.29136,3.86019 -3.28243,3.34195l-0.15744,-0.04585l-13.2459,-4.27029l0.00084,11.984c0,1.99434 -2.07268,3.28406 -3.84524,2.45612l-0.15114,-0.07619l-8.99646,-4.87493l0.00004,8.995c0,1.43958 -1.12379,2.61668 -2.54195,2.7019l-0.16489,0.00494c-1.43958,0 -2.61669,-1.12379 -2.7019,-2.54195l-0.00494,-0.16489l0,-13.54c0,-1.99434 2.07267,-3.28406 3.84523,-2.45612l0.15114,0.07619l8.99627,4.87493l0.00016,-11.155c0,-1.77892 1.67949,-3.05771 3.37341,-2.62368l0.16392,0.04739l12.00851,3.87029l-2.99688,-10.86419c-0.59277,-2.14885 1.51213,-4.02817 3.55606,-3.25606l0.14586,0.05969l14.53596,6.41256c-0.07291,-1.67773 -0.21426,-3.04981 -0.46941,-4.51148l-0.05644,-0.31473c-0.3087,-1.67794 -0.74841,-3.18118 -1.33479,-4.5002c-0.60729,-1.36604 0.00781,-2.96574 1.37385,-3.57303z"/>
       <path fill="#518C2D" id="Path" d="m198.28599,1320.27002c-3.85299,5.23 -17.74499,8.36 -22.97199,9.13c-5.226,0.77 -10.827,0.09 -8.58601,8.74c1.58501,6.11 16.815,3.64 22.77001,3.59c4.84199,-0.05 11.632,14.59 14.16,9.62c0,-17 -3.207,-26.21 -5.37201,-31.08z"/>
       <path fill="#EAF4FB" id="Path" d="m24.3111,1355.62002c6.1207,-2.22 12.6027,-3.9 25.03,-6.72l-5.2812,15.21l0.1512,17.32l-35.37236,0.31004c-1.44359,0.00996 -4.02297,-1.91004 -2.79177,-9.72004c1.539,-9.76 9.56713,-13.25 18.26413,-16.4z"/>
       <polygon points="82.82808145880699,1352.5058898925781 99.30678018927574,1383.9158630371094 83.96602091193199,1391.9641418457031 67.48732218146324,1360.5541687011719 " fill="#518C2D" id="Path"/>
       <polygon points="105.53376993536949,1340.6142883300781 125.28077921271324,1378.3542785644531 109.93123087286949,1386.3857727050781 90.18422159552574,1348.6457824707031 " fill="#518C2D" id="Path"/>
       <polygon points="127.79997476935387,1327.5444641113281 155.10296854376793,1380.7344665527344 139.69102701544762,1388.6455993652344 112.38801798224449,1335.4555969238281 " fill="#518C2D" id="Path"/>
       <path fill="#C7CBCF" id="Path" d="m204.91199,1395.55002l-1.02699,-18.22l-158.6053,2.47l-39.54668,-2.9l-1.2081,13.97c-0.41699,4.83 3.20165,9.05 8.03218,9.39l32.921,2.27l155.17689,-2.4c2.46101,-0.04 4.39601,-2.12 4.257,-4.58z"/>
      </g>
      <path fill="#2C2E32" id="Path" d="m235,1048.13001c63.513,0 115,-23.51 115,-52.501c0,-28.995 -51.487,-52.5 -115,-52.5c-63.513,0 -115,23.505 -115,52.5c0,28.991 51.487,52.501 115,52.501z"/>
      <polygon points="254,890.8960113525391 69,890.8960113525391 104,1244.8999938964844 124.71499633789062,1289.8999938964844 192.71499633789062,1289.8999938964844 199,1244.8999938964844 " fill="#2C2E32" id="Path"/>
      <polygon points="210,890.8960113525391 395,890.8960113525391 360,1244.8999938964844 339.2850036621094,1289.8999938964844 271.2850036621094,1289.8999938964844 265,1244.8999938964844 " fill="#2C2E32" id="Path"/>
      <polygon points="197,1276.8999938964844 115,1276.8999938964844 119,1298.8999938964844 193.2570037841797,1298.8999938964844 " fill="#1D1F23" id="Path"/>
      <polygon points="267,1276.8999938964844 349,1276.8999938964844 345,1298.8999938964844 270.7430114746094,1298.8999938964844 " fill="#1D1F23" id="Path"/>
     </g>
     <g id="upper-limb">
      <path fill-rule="nonzero" fill="#EBBAAA" id="Path" d="m85.7738,567.95013c10.03992,-17.79805 32.60704,-24.08724 50.40508,-14.04732c17.79804,10.03992 24.08724,32.60704 14.04732,50.40508c-18.40435,32.62591 -37.6664,93.19149 -50.45033,156.85543c-6.01223,29.94091 -10.13225,58.43643 -11.80999,81.60659l-0.14229,2.03994c-0.67816,10.11281 -0.85682,18.91506 -0.54798,26.06354l0.03251,0.70933c0.16032,3.30543 0.42372,6.13749 0.76487,8.42676l0.06926,0.4506c0.24953,1.57394 0.49177,2.60313 0.61047,2.96713l0.01964,0.05731c6.98336,19.20424 -2.92362,40.43349 -22.12787,47.41685c-19.20424,6.98336 -40.43349,-2.92362 -47.41685,-22.12787c-10.85951,-29.86364 -6.50947,-89.93912 7.99649,-162.1788c14.18485,-70.64057 35.58903,-137.94163 58.54967,-178.64457z"/>
      <path fill-rule="nonzero" fill="#EBBAAA" id="Path" d="m331.82112,553.90281c17.79804,-10.03992 40.36516,-3.75073 50.40508,14.04732c22.96064,40.70294 44.36482,108.004 58.54967,178.64457c14.50596,72.23968 18.856,132.31516 7.99649,162.1788c-6.98336,19.20425 -28.21261,29.11123 -47.41685,22.12787c-19.0122,-6.91353 -28.91216,-27.78945 -22.33231,-46.84014l0.20444,-0.57671c0.10986,-0.30212 0.36591,-1.35792 0.63011,-3.02444c0.35141,-2.21659 0.62675,-4.9806 0.8007,-8.22261l0.03343,-0.65475c0.37546,-7.74164 0.16153,-17.49817 -0.65776,-28.81281l-0.17902,-2.37449c-1.78022,-22.72923 -5.82254,-50.30614 -11.63097,-79.2321c-12.78393,-63.66394 -32.04598,-124.22952 -50.45033,-156.85543c-10.03992,-17.79804 -3.75072,-40.36516 14.04732,-50.40508z"/>
      <path fill-rule="nonzero" fill="#2C2E32" id="Path" d="m353.5,483.62901l-9.5,281.5c91,0 120,-40 120,-40c-3.154,-80.897 -17.5,-194.5 -110.5,-241.5z"/>
      <path fill-rule="nonzero" fill="#2C2E32" id="Path" d="m110.5,483.62901l9.5,281.5c-91,0 -120,-40 -120,-40c3.15424,-80.897 17.5,-194.5 110.5,-241.5z"/>
      <path fill-rule="nonzero" fill="#2C2E32" id="Path" d="m69.5655,570.00201c-2.6209,-44.863 25.0079,-85.965 67.5405,-100.475l97.894,-33.398l97.894,33.398c42.533,14.51 70.161,55.612 67.54,100.475l-5.557,95.127c0,0 23.104,68.461 24.981,114c1.573,38.161 -10.374,93.88 -13.979,109.68c-0.632,2.77 -2.436,5.077 -5.025,6.248c-14.662,6.627 -69.544,28.072 -165.854,28.072c-96.31,0 -151.1918,-21.445 -165.8537,-28.072c-2.5889,-1.171 -4.3933,-3.478 -5.0253,-6.248c-3.6054,-15.8 -15.5519,-71.519 -13.9791,-109.68c1.8768,-45.539 24.9808,-114 24.9808,-114l-5.5572,-95.127z"/>
      <path transform="rotate(-315 232.00000000000009,634) translate(-232,-198) " fill="#6D6D6D" id="Fill-1" d="m529.86218,831.99838c27.82966,-12.84221 11.0664,-39.39339 -19.93579,-31.04655c-17.09054,4.59473 -32.26867,22.70962 -44.37946,29.49702c6.78748,-12.11064 24.89573,-27.29139 29.49737,-44.37309c8.34694,-31.00869 -18.20456,-47.76488 -31.04387,-19.9414c-12.84237,-27.82348 -39.39361,-11.06729 -31.05073,19.9414c4.60469,17.08069 22.71395,32.26245 29.49737,44.37309c-12.108,-6.7874 -27.2818,-24.90229 -44.37667,-29.49702c-31.00219,-8.34684 -47.76239,18.20434 -19.93147,31.04655c-27.83092,12.83917 -11.07072,39.39009 19.93147,31.0463c17.09487,-4.59752 32.26969,-22.71241 44.37667,-29.49702c-6.78342,12.1109 -24.89268,27.28961 -29.49737,44.383c-8.34288,31.00284 18.20735,47.75904 31.05073,19.93251c12.83931,27.82653 39.39081,11.07033 31.04387,-19.93251c-4.60164,-17.09339 -22.70989,-32.2721 -29.49737,-44.383c12.11079,6.78461 27.28892,24.8995 44.37946,29.49702c31.00321,8.34379 47.76646,-18.20713 19.93579,-31.0463z"/>
     </g>
     <g id="hand">
      <path fill-rule="nonzero" fill="#AF682A" id="Path" d="m392,374.629c0,74.5 0,74.5 -159.5,74.5c-159.5,0 -159.5,0 -159.5,-74.5c0,-328.5001 71.411,-328.5001 159.5,-328.5001c88.089,0 159.5,0 159.5,328.5001z"/>
      <path opacity="0.5" fill-rule="nonzero" fill="#C99584" id="Path" d="m385.875,346.682c22.092,0 40,-19.476 40,-43.5c0,-24.025 -17.908,-43.5 -40,-43.5c-22.091,0 -40,19.475 -40,43.5c0,24.024 17.909,43.5 40,43.5z"/>
      <path opacity="0.5" fill-rule="nonzero" fill="#C99584" id="Path" d="m85.8751,346.682c-22.0914,0 -40,-19.476 -40,-43.5c0,-24.025 17.9086,-43.5 40,-43.5c22.0919,0 39.9999,19.475 39.9999,43.5c0,24.024 -17.908,43.5 -39.9999,43.5z"/>
      <rect rx="34.5" height="115" width="69" y="372.129" x="200.875" fill-rule="nonzero" fill="#EBBAAA" id="Rectangle"/>
      <path fill-rule="nonzero" fill="#F4D5CC" id="Path" d="m77.9745,206.386c3.2956,-83.922 72.2875,-150.2571 156.2735,-150.2571c83.686,0 152.542,65.8771 156.241,149.4811l3.386,76.519c16.77,96.052 -57.153,184 -154.658,184l-3.217,0l-2.029,0c-98.024,0 -173.2024,-87.015 -158.9709,-184l2.9744,-75.743z"/>
      <path fill="#393939" id="Path" d="m274.135,345.732l0,13.867c0,21.3 -17.267,38.567 -38.568,38.567c-21.3,0 -38.567,-17.267 -38.567,-38.567l0,-13.867l77.135,0z"/>
      <g id="Clipped">
       <mask transform="translate(0,-14.736873626708984) translate(163.99981689453125,338.510009765625) translate(33.000179290771484,0) translate(368,97.48999786376953) translate(-368,-97) " id="mask-2">
        <use id="svg_2" xlink:href="#path-1"/>
       </mask>
       <g id="Path"/>
       <g fill-rule="nonzero" mask="url(#mask-2)" id="Group">
        <g id="svg_3">
         <ellipse ry="12.6667" rx="23.2582" cy="379.05913" cx="235.258" fill="#FF6C6C" id="Oval"/>
         <rect height="15.907" width="77.1347" y="328.99513" x="197.0003" fill="#FFFFFF" id="Rectangle"/>
        </g>
       </g>
      </g>
      <path fill-rule="nonzero" fill="#AF682A" id="Path" d="m271.01697,191.57678c0.31617,-5.42003 4.89282,-9.57926 10.28572,-9.41315l0.27965,0.01246l60,3.5c5.51348,0.32162 9.72231,5.0519 9.40069,10.56538c-0.31617,5.42002 -4.89282,9.57925 -10.28572,9.41315l-0.27965,-0.01247l-60,-3.5c-5.51348,-0.32162 -9.72231,-5.0519 -9.40069,-10.56537z"/>
      <path fill-rule="nonzero" fill="#AF682A" id="Path" d="m190.41766,182.17609c5.51347,-0.32162 10.24375,3.88721 10.56537,9.40069c0.31617,5.42003 -3.74584,10.08318 -9.12148,10.54524l-0.27921,0.02013l-60,3.5c-5.51347,0.32162 -10.24375,-3.88721 -10.56537,-9.40068c-0.31617,-5.42003 3.74584,-10.08318 9.12148,-10.54524l0.27921,-0.02014l60,-3.5z"/>
      <path fill-rule="nonzero" fill="#000000" id="Path" d="m299,227.39212c6.52546,0 11.83439,5.20855 11.9962,11.69503l0.0038,0.30497l0,13c0,6.62742 -5.37258,12 -12,12c-6.52546,0 -11.83439,-5.20854 -11.9962,-11.69502l-0.0038,-0.30498l0,-13c0,-6.62741 5.37258,-12 12,-12z"/>
      <path fill-rule="nonzero" fill="#000000" id="Path" d="m173.5,227.39212c6.52546,0 11.83439,5.20855 11.9962,11.69503l0.0038,0.30497l0,13c0,6.62742 -5.37258,12 -12,12c-6.52546,0 -11.83439,-5.20854 -11.9962,-11.69502l-0.0038,-0.30498l0,-13c0,-6.62741 5.37258,-12 12,-12z"/>
      <path fill-rule="nonzero" fill="#706F6F" id="Path" d="m240.875,109.94512c-83.001,0 -140.213,13.5 -152.9996,41.188c-12.787,27.688 -9.8602,36.312 -10.5,28.812c-0.6397,-7.5 -1.5,-15.874 -1.5,-31c0,-98.1881 68.5006,-113.0021 130.4996,-107.0014c62,6.0006 110.361,68.0014 34.5,68.0014z"/>
      <path fill-rule="nonzero" fill="#706F6F" id="Path" d="m230.199,109.45512c76.149,0 152.537,-28.664 155.676,26.99c12,19 7.5,41 9,10c6.46,-133.4994 -197,-223.3719 -300.9999,-67.872c0,0 60.1669,30.882 136.3239,30.882z"/>
      <path fill-rule="nonzero" fill="#9D6330" id="Path" d="m246.268,102.39212c-143.268,31.999 -193.9995,124.999 -154.4995,264c-56.9999,-59 -69.5,-130.501 -50.5001,-204c31.6554,-122.4568 169.2546,-235.3091 294.9996,-133.6834c0,0 10.225,51.2974 -90,73.6834z"/>
      <path fill-rule="nonzero" fill="#9D6330" id="Path" d="m225,162.39212c136,17.999 194,64.999 154.5,204c57,-59 69.5,-130.501 50.5,-204c-31.655,-122.4568 -170.49138,-239.58425 -296.23738,-137.95855c0,0 -10.56862,124.48355 91.23738,137.95855z"/>
      <path fill-rule="nonzero" fill="#FFFFFF" fill-opacity="0.30706" id="Path" d="m263.04273,110.23985c0.36024,-2.73783 2.87172,-4.66524 5.60954,-4.305c8.87066,1.16719 15.68517,4.11033 21.18726,8.87345c4.02773,3.48679 6.79797,7.17984 10.74119,13.71215l2.50321,4.20776c0.61522,1.03198 1.13447,1.88951 1.63523,2.69643l0.2137,0.34309c8.3437,13.34491 17.47727,20.20307 36.47417,23.70735c2.71561,0.50094 4.51095,3.10846 4.01001,5.82407c-0.50093,2.71561 -3.10846,4.51095 -5.82407,4.01002c-21.93952,-4.0471 -33.38742,-12.64304 -43.13919,-28.24002l-0.6942,-1.12254c-0.31456,-0.51396 -0.64098,-1.05412 -0.99459,-1.64487l-2.10863,-3.55085l-0.87265,-1.45188c-3.29734,-5.42739 -5.52329,-8.36253 -8.48929,-10.93018c-3.98324,-3.44826 -8.96813,-5.6012 -15.94669,-6.51944c-2.73783,-0.36024 -4.66524,-2.87171 -4.305,-5.60954z"/>
      <path fill-rule="nonzero" fill="#FFFFFF" fill-opacity="0.30706" id="Path" d="m317.23209,126.88647c0.83155,-2.63325 3.64032,-4.09381 6.27357,-3.26226c9.57132,3.02252 15.53253,6.74112 20.35604,12.00484l0.98458,1.10563c0.4975,0.57481 0.95005,1.13241 1.84692,2.26508l0.9191,1.16373c2.69408,3.41586 4.20918,4.94206 6.72929,6.48605c3.4145,2.09196 8.26173,3.68244 15.43029,4.80252c2.72832,0.4263 4.59448,2.98363 4.16818,5.71195c-0.4263,2.72832 -2.98362,4.59447 -5.71194,4.16817c-15.32112,-2.39392 -21.55778,-6.21493 -28.46761,-14.976l-1.57902,-1.9922c-0.6132,-0.76339 -0.92588,-1.12605 -1.45567,-1.71753c-3.66527,-4.09211 -8.13693,-6.93024 -16.23148,-9.48641c-2.63324,-0.83155 -4.0938,-3.64033 -3.26225,-6.27357z"/>
      <path fill-rule="nonzero" fill="#EBBAAA" id="Path" d="m231.80257,258.23017l14.14486,9.4299c-4.80742,7.21114 -8.57243,18.03553 -8.57243,25.91005c0,7.59302 2.742,10.78471 11.13676,10.87311l0.36324,0.00189l0,17c-18.54312,0 -28.5,-11.20149 -28.5,-27.875c0,-11.29511 4.69894,-25.00624 11.07798,-34.80916l0.34959,-0.53079z"/>
     </g>
    </g>
   </g>
  </g>
  <rect id="svg_14" height="161" width="29" y="756" x="43" stroke-width="1.5" fill="#EBBAAA"/>
  <rect id="svg_17" height="149.474" width="21.05268" y="754.73845" x="403.57931" stroke-width="1.5" fill="#EBBAAA"/>
  <rect id="svg_20" height="165.00018" width="13.75002" y="753.75081" x="395.75018" stroke-width="1.5" fill="#EBBAAA"/>
  <rect id="svg_21" height="53.75006" width="38.75004" y="875.00094" x="70.74982" stroke-width="1.5" fill="#2C2E32"/>
  <rect id="svg_22" height="31.25003" width="31.25003" y="896.25097" x="364.50015" stroke-width="1.5" fill="#2C2E32"/>
  <rect id="svg_23" height="0" width="6.25001" y="913.75098" x="368.25015" stroke-width="1.5" fill="#2C2E32"/>
 </g>
</svg>